<svg xmlns="http://www.w3.org/2000/svg" viewBox="0 0 64 64" fill="none">
  <rect width="64" height="64" rx="14" fill="#09090B"/>
  <g transform="translate(10, 8)" fill="#E0E0E0">
    <path d="
      M14,4 L38,4
      C40.2,4 42,5.8 42,8 C42,10.2 40.2,12 38,12
      L14,12
      C10,12 8,14 8,18 L8,20
      L30,20
      C32.2,20 34,21.8 34,24 C34,26.2 32.2,28 30,28
      L8,28 L8,30
      C8,34 10,36 14,36
      L38,36
      C40.2,36 42,37.8 42,40 C42,42.2 40.2,44 38,44
      L14,44
      C5,44 0,39 0,30 L0,18
      C0,9 5,4 14,4 Z
    "/>
  </g>
</svg>
